<?xml version="1.0" encoding="UTF-8"?> <svg xmlns="http://www.w3.org/2000/svg" width="75" height="39"><g transform="translate(1 1)" fill="none" fill-rule="evenodd"><path d="M54.308 6.242c-3.299-.239-7.452 1.046-9.24 6.092-2.383 6.722 2.162 8.605 4.912 8.685 1.367.039 6.606.377 8.859-6.12 2.015-5.811-1.368-8.429-4.53-8.657zm.47 7.887c-.672 2.35-1.96 3.79-4.232 3.774h-.06c-2.462-.064-1.916-2.746-1.126-5.059.875-2.56 2.321-3.502 4.042-3.457 2.551.066 2.058 2.358 1.377 4.742zm-36.041 5.738c0-.876-.875-18.084-.914-18.8-.04-.715-.866-.692-1.058-.692h-2.704c-.668 0-1.718.393-2.617 1.693C7.3 8.06 1.845 17.521.633 20.263c-.294.666.248.621.333.621h3.32c.383 0 .482-.072.624-.342.272-.518 1.243-2.354 2.084-3.95h7.236c.052 1.99.092 3.5.1 3.719.023.723.8.573.8.573h2.804c.275 0 .803-.143.803-1.017zm-4.597-6.71H8.827c3.117-5.653 5.102-8.175 5.102-8.175l.21 8.175zm6.214 7.727s-.914.095-.778-.68c.135-.775 2.575-12.817 2.575-12.817s.115-.954.858-.954h2.506s.555.048.455.5c-.099.454-.238 1.15-.238 1.15s1.53-1.531 3.478-1.65c1.947-.12 2.74 0 2.74 0s.773.06.22.695c-.552.636-1.657 1.975-1.867 2.333-.211.358-.505.727-.954.727-.45 0-3.478-.357-4.193 3.22C24.44 16.985 23.824 20 23.824 20s-.072.883-.709.883h-2.76zM43.96 6.552s-1.416-.017-2.164-.017c-.673 0-.901 1.607-.901 1.607s-.529-1.846-3.748-1.863c-3.151-.017-5.18 2.923-5.638 3.73-.459.808-1.76 3.174-1.942 6.081-.184 2.975 1.55 4.904 4.566 4.923 2.668.017 3.8-1.485 3.8-1.485-.667 2.643-1.91 3.99-3.954 4.278-1.3.184-2.285-.528-2.759-.86-.45-.315-1.18-.064-1.363 0-.184.064-1.415.714-1.68.912-.244.181-.474.794-.114 1.248 2.032 2.567 5.373 2.487 6.223 2.41 1.617-.144 2.32-.42 3.372-1.053 2.093-1.259 3.207-3.67 3.713-4.888.596-1.434 1.674-6.061 1.823-6.694.149-.633 1.476-6.374 1.687-7.17.303-1.153-.921-1.16-.921-1.16zm-5.178 7.988c-.562 1.44-1.681 3.382-3.69 3.151-2.68-.306-1.212-4.462-1.212-4.462s1.047-4.207 4.017-3.85c2.6.314 1.386 3.88.885 5.161zm33.399-4.471s.802-.432.37-1.037c-.752-1.05-2.11-2.715-5.997-2.599-4.34.128-6.106 3.123-6.034 4.912.07 1.733.704 2.408 2.385 3.052 1.464.562 4.102.766 4.102 2.27 0 1.033-1.753 1.43-2.227 1.43-.472 0-1.648-.274-2.583-1.45-.417-.525-.954-.525-1.271-.358-.319.167-1.463.688-1.75.914-.285.226-.325.775-.099 1.272.227.497 1.729 2.881 5.763 2.742 3.92-.135 6.839-1.978 6.916-5.389.043-1.943-1.527-3.016-3.08-3.553-1.555-.537-3.35-.757-3.387-1.883-.024-.74.902-1.193 1.658-1.193.754 0 1.556.522 2.277 1.168.425.382.743.775 1.431.454.36-.169 1.526-.752 1.526-.752zM1.343 27.338s-1.179-.779-.829-1.215c.55-.687 1.417-.035 1.809.102.392.136 15.678 7.631 35.137 7.06 18.006-.531 30.934-6.878 32.05-7.227.727-.226 1.371-.648 1.67-.19.219.336.12.729-.537 1.132-.616.377-14.487 10.334-34.936 10.194-21.462-.145-34.364-9.856-34.364-9.856z" stroke="#FFFFFE" stroke-width="1.32"></path><path d="M54.308 6.242c-3.299-.239-7.452 1.046-9.24 6.092-2.383 6.722 2.162 8.605 4.912 8.685 1.367.039 6.606.377 8.859-6.12 2.015-5.811-1.368-8.429-4.53-8.657m.47 7.887c-.673 2.35-1.961 3.79-4.233 3.774h-.06c-2.462-.064-1.916-2.746-1.126-5.059.875-2.56 2.321-3.502 4.042-3.457 2.551.066 2.058 2.358 1.377 4.742m-36.042 5.738c0-.876-.875-18.084-.914-18.8-.04-.715-.866-.692-1.058-.692h-2.704c-.668 0-1.718.393-2.617 1.693C7.3 8.06 1.845 17.521.633 20.263c-.294.666.248.621.333.621h3.32c.383 0 .482-.072.624-.342.272-.518 1.243-2.354 2.084-3.95h7.236c.052 1.99.092 3.5.1 3.719.023.723.8.573.8.573h2.804c.275 0 .803-.143.803-1.017m-4.597-6.71H8.827c3.117-5.653 5.102-8.175 5.102-8.175l.21 8.175m6.215 7.727s-.914.095-.778-.68c.135-.775 2.575-12.817 2.575-12.817s.115-.954.858-.954h2.506s.555.048.455.5c-.099.454-.238 1.15-.238 1.15s1.53-1.531 3.478-1.65c1.947-.12 2.74 0 2.74 0s.773.06.22.695c-.552.636-1.657 1.975-1.867 2.333-.211.358-.505.727-.954.727-.45 0-3.478-.357-4.193 3.22C24.44 16.985 23.824 20 23.824 20s-.072.883-.709.883h-2.76M43.96 6.552s-1.416-.017-2.164-.017c-.673 0-.901 1.607-.901 1.607s-.529-1.846-3.748-1.863c-3.151-.017-5.18 2.923-5.638 3.73-.459.808-1.76 3.174-1.942 6.081-.184 2.975 1.55 4.904 4.566 4.923 2.668.017 3.8-1.485 3.8-1.485-.667 2.643-1.91 3.99-3.954 4.278-1.3.184-2.285-.528-2.759-.86-.45-.315-1.18-.064-1.363 0-.184.064-1.415.714-1.68.912-.244.181-.474.794-.114 1.248 2.032 2.567 5.373 2.487 6.223 2.41 1.617-.144 2.32-.42 3.372-1.053 2.093-1.259 3.207-3.67 3.713-4.888.596-1.434 1.674-6.061 1.823-6.694.149-.633 1.476-6.374 1.687-7.17.303-1.153-.921-1.16-.921-1.16m-5.178 7.99c-.562 1.439-1.681 3.38-3.69 3.15-2.68-.306-1.212-4.462-1.212-4.462s1.047-4.207 4.017-3.85c2.6.314 1.386 3.88.885 5.161m33.399-4.471s.802-.432.37-1.037c-.752-1.05-2.11-2.715-5.997-2.599-4.34.128-6.106 3.123-6.034 4.912.07 1.733.704 2.408 2.385 3.052 1.464.562 4.102.766 4.102 2.27 0 1.033-1.753 1.43-2.227 1.43-.472 0-1.648-.274-2.583-1.45-.417-.525-.954-.525-1.271-.358-.319.167-1.463.688-1.75.914-.285.226-.325.775-.099 1.272.227.497 1.729 2.881 5.763 2.742 3.92-.135 6.839-1.978 6.916-5.389.043-1.943-1.527-3.016-3.08-3.553-1.555-.537-3.35-.757-3.387-1.883-.024-.74.902-1.193 1.658-1.193.754 0 1.556.522 2.277 1.168.425.382.743.775 1.431.454.36-.169 1.526-.752 1.526-.752" fill="#080B19"></path><path d="M1.343 27.338s-1.179-.779-.829-1.215c.55-.687 1.417-.035 1.809.102.392.136 15.678 7.631 35.137 7.06 18.006-.531 30.934-6.878 32.05-7.227.727-.226 1.371-.648 1.67-.19.219.336.12.729-.537 1.132-.616.377-14.487 10.334-34.936 10.194-21.462-.145-34.364-9.856-34.364-9.856" fill="#080B19"></path></g></svg> 