<?xml version="1.0" encoding="UTF-8"?> <svg xmlns="http://www.w3.org/2000/svg" width="84" height="53"><g fill="none"><path fill="#080B19" d="M30.93024 52.8L83.73024 52.8 83.73024 0 30.93024 0z"></path><path fill="#080B19" d="M20.37024 52.8L28.6704 52.8 28.6704 0 20.37024 0z"></path><path fill="#080B19" d="M10.57056 52.8L14.34048 52.8 14.34048 0 10.57056 0z"></path><path fill="#080B19" d="M0.01056 52.8L2.2704 52.8 2.2704 0 0.01056 0z"></path><g transform="translate(38.86 9.398)" fill="#FFF"><path d="M4.446.137h.96v5.745c0 .644-.031 1.362-.496 1.869-.221.243-.506.39-.834.454-.021-.01-.887-.887-.887-.887.264 0 .528.021.782-.084a.632.632 0 0 0 .37-.349c.084-.169.115-.549.115-1.109V.137h-.01zm7.402.813c-.77 0-1.394.243-1.89.718-.496.486-.74 1.099-.74 1.838 0 .729.254 1.33.74 1.806.496.475 1.12.718 1.859.718.75 0 1.372-.243 1.869-.74.496-.485.75-1.098.75-1.826 0-.708-.254-1.31-.75-1.796C13.2 1.193 12.577.95 11.848.95m-.031-.908c1.035 0 1.9.328 2.587.982.686.655 1.035 1.479 1.035 2.471 0 .993-.349 1.806-1.046 2.46-.697.645-1.573.972-2.63.972-1.013 0-1.858-.327-2.523-.971-.676-.644-1.014-1.457-1.014-2.44 0-1.003.338-1.826 1.014-2.492.676-.665 1.542-.982 2.577-.982"></path><path d="M23.13696 0.13728L24.09792 0.13728 24.09792 6.84288 23.13696 6.84288 23.13696 3.92832 19.20864 3.92832 19.20864 6.84288 18.24768 6.84288 18.24768 0.13728 19.20864 0.13728 19.20864 3.0624 23.13696 3.0624z"></path><path d="M33.02112 0.13728L33.92928 0.13728 33.92928 6.84288 33.1056 6.84288 28.41696 1.67904 28.41696 6.84288 27.51936 6.84288 27.51936 0.13728 28.29024 0.13728 33.02112 5.34336z"></path><path d="M0.50688 14.53056L0.50688 21.2784 4.6464 21.2784 4.6464 20.41248 1.4784 20.41248 1.4784 14.53056z"></path><path d="M7.87776 14.53056L7.87776 21.2784 12.22848 21.2784 12.22848 20.41248 8.84928 20.41248 8.84928 18.31104 12.04896 18.31104 12.04896 17.43456 8.84928 17.43456 8.84928 15.39648 12.144 15.39648 12.144 14.53056z"></path><path d="M24.3408 14.53056L22.50336 19.17696 20.62368 14.53056 19.70496 14.53056 17.83584 19.17696 15.96672 14.53056 15.00576 14.53056 17.73024 21.34176 17.92032 21.34176 20.15904 15.81888 22.37664 21.34176 22.56672 21.34176 25.30176 14.53056z"></path><path d="M28.22688 21.2784L29.18784 21.2784 29.18784 14.53056 28.22688 14.53056z"></path><path d="M34.647 18.47l-.739-.444a3.561 3.561 0 0 1-.96-.824 1.493 1.493 0 0 1-.328-.96c0-.529.18-.962.549-1.3.37-.338.855-.496 1.447-.496.623 0 1.077.158 1.552.475v1.099c-.486-.465-1.014-.697-1.573-.697-.317 0-.57.073-.782.221-.2.148-.306.338-.306.57 0 .201.053.37.2.55.148.18.412.38.75.58l.76.433c.824.497 1.204 1.12 1.204 1.88 0 .539-.19.993-.549 1.32-.359.338-.823.518-1.404.507a2.979 2.979 0 0 1-1.816-.623v-1.225c.517.665 1.13.982 1.805.982.307 0 .56-.074.76-.243a.8.8 0 0 0 .307-.633c.021-.423-.285-.803-.877-1.173M1.193 29.505c0 .084.032.169.095.274.064.106.138.2.222.275.127-.074.232-.159.306-.243a.428.428 0 0 0 .116-.285.343.343 0 0 0-.105-.254.395.395 0 0 0-.275-.095.43.43 0 0 0-.253.085.32.32 0 0 0-.106.243m-.433 1.89c0 .116.043.211.138.296.095.084.2.116.316.116.212 0 .433-.106.666-.307l-.623-.707a1.52 1.52 0 0 0-.36.285.45.45 0 0 0-.137.317m.803-2.735c.274 0 .517.074.697.232a.74.74 0 0 1 .274.602c0 .18-.052.338-.169.496-.105.159-.285.307-.506.454l.506.581c.148-.148.286-.338.412-.58h.666a3.18 3.18 0 0 1-.666 1.034l.74.835h-.909l-.338-.38c-.19.158-.359.263-.538.327-.17.063-.38.105-.613.105-.295 0-.538-.084-.75-.264a.857.857 0 0 1-.084-1.235c.148-.17.349-.327.623-.475a1.918 1.918 0 0 1-.274-.433.885.885 0 0 1-.085-.402c0-.264.095-.485.296-.654.169-.159.422-.243.718-.243m5.639 1.563c.19 0 .338-.043.443-.127.106-.084.159-.211.159-.38 0-.338-.211-.507-.644-.507h-.486v1.014h.528zm.18-1.563c.337 0 .622.095.834.296.21.2.316.454.316.76 0 .317-.105.57-.327.77-.211.201-.507.296-.855.296h-.676v1.532h-.708V28.66h1.415zm2.935 2.228H11.5l-.613-1.447-.57 1.447zm.93-2.228l1.615 3.654h-.75l-.38-.887h-1.626l-.349.887h-.739l1.51-3.654h.718zm3.706 1.552c.19 0 .327-.042.433-.137a.486.486 0 0 0 .158-.38c0-.17-.052-.296-.158-.38-.106-.085-.254-.127-.444-.127H14.5v1.014h.454v.01zm.158-1.552c.349 0 .623.095.845.285.211.19.328.433.328.74 0 .21-.053.39-.159.538a.985.985 0 0 1-.475.359c.116.063.222.148.317.253.095.106.2.296.338.55.221.443.39.75.496.918h-.792a10.345 10.345 0 0 1-.222-.38c-.2-.39-.348-.655-.443-.782-.095-.137-.18-.232-.275-.285a.577.577 0 0 0-.306-.084h-.254v1.542h-.707V28.66h1.31z"></path><path d="M20.6448 28.65984L20.6448 29.20896 19.34592 29.20896 19.34592 32.3136 18.6384 32.3136 18.6384 29.20896 17.33952 29.20896 17.33952 28.65984z"></path><path d="M22.41888 28.65984L24.59424 31.2048 24.59424 28.65984 25.28064 28.65984 25.28064 32.3136 24.67872 32.3136 22.4928 29.71584 22.4928 32.3136 21.79584 32.3136 21.79584 28.65984z"></path><path d="M29.12448 28.65984L29.12448 29.20896 27.46656 29.20896 27.46656 30.16992 29.05056 30.16992 29.05056 30.71904 27.46656 30.71904 27.46656 31.76448 29.15616 31.76448 29.15616 32.3136 26.75904 32.3136 26.75904 28.65984z"></path><path d="M31.68 30.212c.18 0 .327-.042.433-.137a.486.486 0 0 0 .158-.38c0-.17-.052-.296-.158-.38-.106-.085-.253-.127-.444-.127h-.443v1.014h.454v.01zm.158-1.552c.349 0 .623.095.845.285.211.19.328.433.328.74 0 .21-.053.39-.159.538a.985.985 0 0 1-.475.359c.116.063.222.148.306.253.095.106.2.296.338.55.222.443.39.75.496.918h-.792a10.345 10.345 0 0 1-.221-.38c-.201-.39-.349-.655-.444-.782a1.017 1.017 0 0 0-.274-.285.568.568 0 0 0-.296-.084h-.254v1.542h-.718V28.66h1.32zm3.791-.053c.36 0 .697.085 1.025.264v.623c-.38-.232-.718-.348-1.003-.348-.18 0-.317.031-.412.105a.308.308 0 0 0-.148.275c0 .137.095.264.274.38.053.032.254.137.602.296.296.137.518.295.655.475.137.169.2.38.2.623 0 .317-.115.57-.337.76-.222.19-.518.285-.877.285a2.04 2.04 0 0 1-.602-.074 2.66 2.66 0 0 1-.57-.264v-.697c.39.328.76.486 1.109.486a.74.74 0 0 0 .422-.116.353.353 0 0 0 .159-.296c0-.169-.095-.306-.275-.412-.158-.084-.348-.179-.591-.306-.285-.126-.507-.285-.644-.454a.95.95 0 0 1-.212-.602c0-.306.117-.549.338-.739.212-.169.518-.264.887-.264"></path></g></g></svg> 