<?xml version="1.0" encoding="UTF-8"?> <svg xmlns="http://www.w3.org/2000/svg" width="81" height="59"><g transform="translate(-1 -12)" fill="none"><path fill="none" d="M0 0L82.5 0 82.5 82.5 0 82.5z"></path><path d="M47.602 17.888a28.912 28.912 0 0 0-4.858 4.82 26.226 26.226 0 0 0-4.567 8.739 28.82 28.82 0 0 0-1.133 10.62c.333-.42.703-.811 1.104-1.168a9.035 9.035 0 0 1 1.292-.957c.458-.28.941-.517 1.38-.698.88-.362 1.635-.532 2.456-.651a8.837 8.837 0 0 1 2.748.044c.498.09.985.226 1.457.408.472.183.925.41 1.354.677a12.22 12.22 0 0 1 1.826-2.187 11.7 11.7 0 0 1 2.287-1.695 14.496 14.496 0 0 1 2.412-1.064c.7-.238 1.216-.35 1.736-.44a14.898 14.898 0 0 1 3.144-.214l10.299 18.57c.341.616.86 1.115 1.49 1.431a3.659 3.659 0 0 0 2.116.34 3.78 3.78 0 0 0 2.731-1.781 2.955 2.955 0 0 0 .033-3.027l-.943-1.617c-.203-.313-.49-.307-.758-.233a.898.898 0 0 0-.274.143c-.26.21-.337.448-.303.682a.658.658 0 0 0 .077.223l.745 1.318c.204.366.264.769.187 1.168a2.048 2.048 0 0 1-1.207 1.482 2.047 2.047 0 0 1-1.3.097c-.521-.15-.962-.5-1.225-.976L61.6 33.355a13.343 13.343 0 0 1 11.02-6.51 9.113 9.113 0 0 1 2.5-5.834 10.522 10.522 0 0 1 1.778-1.498 10.495 10.495 0 0 1 4.388-1.662 23.109 23.109 0 0 0-6.056-3.638c-.818-.334-1.65-.63-2.495-.887a30.913 30.913 0 0 0-2.626-.67 21.116 21.116 0 0 0-3.132-.43 33.824 33.824 0 0 0-4.972.022 27.36 27.36 0 0 0-5.33.994 28.51 28.51 0 0 0-5.041 2.003c-.573-.827-1.246-1.642-1.877-2.457-.086-.117-.194-.136-.312-.085-.1.09-.12.198-.065.316l1.054 2.916a28.909 28.909 0 0 0-2.833 1.953z" fill="#000"></path><path d="M57.368 33.54c-.929.165-1.84.426-2.712.784-.87.358-1.7.812-2.307 1.184-.477.289-.932.61-1.365.961a19.6 19.6 0 0 0-1.086.941c-.35.327-.685.67-1.006 1.025a25.779 25.779 0 0 1-1.07-5.954 28.674 28.674 0 0 1-.021-2.904c.038-.884.113-1.638.215-2.39.201-1.487.515-2.957.938-4.397a24.178 24.178 0 0 1 2.424-5.535l8.807 16.073a13.903 13.903 0 0 0-2.817.211zm6.347-3.797a14.035 14.035 0 0 1 8.321-3.602 30.835 30.835 0 0 0-2.27-2.218 31.63 31.63 0 0 0-2.483-1.976 28.252 28.252 0 0 0-2.837-1.794 32.207 32.207 0 0 0-3.69-1.757 31.752 31.752 0 0 0-4.056-1.284 36.79 36.79 0 0 0-4.122-.782l-.96.032c3.086 5.662 6.164 11.324 9.246 16.986a14.18 14.18 0 0 1 2.851-3.605z" fill="#FFF"></path><path d="M56.83 16.488a29.96 29.96 0 0 0-4.31-.683 24.263 24.263 0 0 1 10.044-2.847c1.218-.075 2.5-.07 3.774.024s2.543.276 3.79.55c1.249.273 2.476.638 3.403.955a17.95 17.95 0 0 1 2.166.887c.614.297 1.213.623 1.797.975a21.07 21.07 0 0 1 1.695 1.142 11.45 11.45 0 0 0-2.46 1.135c-.376.232-.738.485-1.085.757a9.722 9.722 0 0 0-2.307 2.62 11.203 11.203 0 0 0-1.332 3.332 29.656 29.656 0 0 0-2.161-2.122 27.234 27.234 0 0 0-2.372-1.882c-.826-.58-1.686-1.112-2.116-1.378-.43-.265-.43-.265-1.08-.597-.647-.333-1.944-.998-3.29-1.549a27.572 27.572 0 0 0-4.155-1.32zm-9.134 8.707c-.297 1.587-.433 3.202-.497 4.252-.063 1.05-.056 1.536-.04 2.02a28.84 28.84 0 0 0 .639 5.287c.137.632.295 1.259.476 1.88a7.813 7.813 0 0 0-3.76-.767c-1.32.013-2.626.267-3.854.75a9.818 9.818 0 0 0-3.057 1.913 28.322 28.322 0 0 1 .482-6.021c.187-.991.427-1.973.732-2.964a26.58 26.58 0 0 1 1.109-2.965 25.33 25.33 0 0 1 3.339-5.497 28.29 28.29 0 0 1 7.954-6.867 27.063 27.063 0 0 0-2.176 4.33 25.4 25.4 0 0 0-1.347 4.65z" fill="#FFF"></path><path d="M3.281 41.993a.938.938 0 0 1 .04.294l-.003 10.449a.985.985 0 0 1-.993.99l-1.112-.002v.613l11.362-.008.447-3.817h-.48a7.349 7.349 0 0 1-1.203 2.231 2.684 2.684 0 0 1-2.01.98l-2.085-.002a.95.95 0 0 1-.568-.19.929.929 0 0 1-.375-.795l.006-10.466a.913.913 0 0 1 .937-.938h.958L8.2 40.69l-6.907.01v.636h1.091a.931.931 0 0 1 .896.657zm38.91.654v10.46a.647.647 0 0 1-.66.647l-.434-.001v.585h5.096v-.546l-.726-.001a.785.785 0 0 1-.483-.15.78.78 0 0 1-.325-.668l-.003-12.43c-1.183.448-2.425.72-3.687.807v.418l.631.137a.74.74 0 0 1 .592.742zm-19.931 8.67a5.112 5.112 0 0 1-1.082 1.093 3.075 3.075 0 0 1-1.845.58 3.152 3.152 0 0 1-1.462-.389 2.904 2.904 0 0 1-.835-.686 3.491 3.491 0 0 1-.814-2.405l6.186.004a6.077 6.077 0 0 0-.359-1.713 3.469 3.469 0 0 0-1.348-1.754c-.563-.384-1.237-.555-1.882-.623a5.31 5.31 0 0 0-1.752.11c-.29.07-.578.165-.855.288a4.63 4.63 0 0 0-1.466 1.031 4.143 4.143 0 0 0-.89 1.408c-.387 1.07-.383 2.203-.035 3.353a4.229 4.229 0 0 0 1.695 2.27c.82.553 1.816.758 2.755.736.676-.02 1.347-.15 2.018-.5a4.06 4.06 0 0 0 .612-.393c.236-.182.457-.381.663-.597.43-.452.782-.974 1.04-1.543l-.344-.27zm-5.786-4.067c.136-.298.307-.595.58-.845.116-.103.244-.19.383-.257.51-.24 1.039-.24 1.468.026.152.093.285.216.392.36.242.355.404.758.475 1.183.067.372.026.75.035 1.12l-3.56.006c-.006-.535-.009-1.084.227-1.593zm16.657-3.347a1.05 1.05 0 0 0-.361-.565c-.311-.246-.693-.282-1.06-.16-.144.05-.279.128-.394.227-.326.283-.449.677-.492 1.032-.03.237.014.472.019.708.005.117.007.235.004.325a.628.628 0 0 1-.119.379c-.203.24-.49.364-.75.481a5.359 5.359 0 0 0-4.283-.728c-.378.104-.74.26-1.073.464a3.214 3.214 0 0 0-1.121 1.158 2.627 2.627 0 0 0-.382 1.625c.026.282.099.56.217.816.114.24.259.466.43.67.312.366.577.555.873.768.153.106.312.203.476.29l-1.737 1.087c-.128.089-.24.198-.33.325-.272.388-.337.86-.138 1.327.125.326.398.572.734.663-.44.176-.803.502-1.027.919-.186.352-.28.763-.205 1.161.06.33.217.634.454.872.235.24.543.376.83.514.3.135.606.24.913.316a10 10 0 0 0 2.835.189c.424-.037.847-.094 1.266-.172a5.461 5.461 0 0 0 1.69-.584 2.898 2.898 0 0 0 1.2-1.175 2.898 2.898 0 0 0 .343-1.645 2.321 2.321 0 0 0-.526-1.232 2.325 2.325 0 0 0-.508-.448c-.686-.448-1.389-.606-2.112-.66-1.051-.096-2.104-.177-3.157-.264a.368.368 0 0 1-.24-.105c-.129-.141-.16-.304-.036-.49a.385.385 0 0 1 .098-.089l.526-.367a4.826 4.826 0 0 0 3.91-.61c.285-.195.529-.444.72-.732a2.658 2.658 0 0 0 .38-1.979 6.194 6.194 0 0 0-.496-1.44c.536-.207 1.06-.447 1.567-.718.362-.206.664-.504.875-.864.15-.259.24-.565.239-.86 0-.144-.017-.288-.052-.429zM27.02 55c.352.008.663.015.973.03.31.018.62.044.928.078a1.292 1.292 0 0 1 1.165 1.484c-.061.352-.25.71-.665 1.03-.179.133-.38.232-.595.291a8.746 8.746 0 0 1-3.27.223c-.467-.057-.98-.171-1.361-.364a1.693 1.693 0 0 1-.432-.33 1.469 1.469 0 0 1 .155-2.134c.232-.19.496-.338.779-.437.778.087 1.61.117 2.323.13zm1.416-5.732a3.173 3.173 0 0 1-.33 1.251c-.045.09-.103.175-.172.249a.935.935 0 0 1-.217.173c-.283.154-.553.165-.814.147-.287-.028-.58-.111-.816-.395a1.153 1.153 0 0 1-.18-.32 4.158 4.158 0 0 1-.262-1.681 4.627 4.627 0 0 1 .205-1.681 1.28 1.28 0 0 1 1.608-.897c.317.107.573.346.7.656.149.359.239.74.267 1.127.015.184.028.432.03.68.003.248-.005.496-.019.69z" fill="#000"></path><path d="M37.215 46.96c-.012-.149-.011-.313-.082-.468A.821.821 0 0 0 37 46.28c-.271-.288-.6-.337-.914-.334-.328 0-.646.116-.899.326-.334.282-.504.673-.494 1.032.017.366-.102.724-.335 1.006a1.471 1.471 0 0 1-.955.515c-.178.02-.375.028-.562-.051a.838.838 0 0 1-.24-.153c-.292-.304-.37-.657-.339-1.013.03-.443.4-.937.873-1.258a3.285 3.285 0 0 1 .747-.396c.22-.086.548-.207.883-.306 1.182-.328 2.392-.456 3.611-.132a1.735 1.735 0 0 1 .877.532c.353.395.437.87.445 1.33l-.006 5.502a.738.738 0 0 0 .182.49c.18.208.462.297.728.229l.094.422c-.666.413-1.45.59-2.229.502a1.695 1.695 0 0 1-1.323-1.04 3.727 3.727 0 0 1-1.455.835 6.303 6.303 0 0 1-2.454.25 1.984 1.984 0 0 1-1.186-.547 2.013 2.013 0 0 1-.574-1.781c.034-.204.096-.402.185-.587.09-.184.205-.356.34-.51.134-.155.286-.293.447-.418.162-.124.334-.235.514-.33a3.63 3.63 0 0 1 .665-.264 10.127 10.127 0 0 1 3.596-.419c-.003-.916.004-1.834-.007-2.753zm-1.43 3.47a4.982 4.982 0 0 0-.646.145c-.148.042-.29.103-.424.18-.117.07-.227.154-.323.25-.387.4-.481.762-.478 1.143-.006.346.05.712.481 1.1.443.355.95.377 1.443.254.34-.086.65-.26.902-.504.231-.224.418-.512.452-.78a1.27 1.27 0 0 0 .015-.199v-1.613a5.064 5.064 0 0 0-1.422.024zm27.92 1.23c-.2.325-.427.633-.677.922-.269.305-.501.558-.744.692a1.177 1.177 0 0 1-1.271-.104 1.217 1.217 0 0 1-.298-.331l-.521-.927c.818-1.171 1.412-2.347 1.79-3.543.095-.33.144-.67.268-1.005.192-.357.565-.58.97-.578.255.048.51.097.612.007.104-.09.056-.318.008-.546-1.294-.157-2.745-.156-3.462-.024-.715.133-.694.398-.559.511.134.114.385.077.561.068.175-.008.286-.011.37.045l.252.168.17.25.062.296c-.004.202-.02.404-.048.606-.046.366-.171.719-.3 1.065-.127.346-.282.683-.47 1.09-.19.406-.41.883-1.062.159-.65-.724-1.733-2.65-2.353-4.318a7.99 7.99 0 0 0 1.695-1.193 2.66 2.66 0 0 0 .577-.742c.198-.387.307-.781.308-1.189a2.359 2.359 0 0 0-1.079-1.995 3.79 3.79 0 0 0-2.13-.516 3.885 3.885 0 0 0-1.55.422c-.298.157-.57.36-.806.6a3.156 3.156 0 0 0-.647.907 3.146 3.146 0 0 0-.18 2.183c.22.706.476 1.4.769 2.079a7.78 7.78 0 0 0-2.528 1.356 3.864 3.864 0 0 0-.907 1.004 3.866 3.866 0 0 0-.542 2.608 3.448 3.448 0 0 0 1.708 2.471c.936.521 1.913.607 2.889.587.325-.006.65-.029.972-.07.302-.037.6-.098.893-.182a5.454 5.454 0 0 0 1.614-.771c.152.151.32.288.5.408.733.483 1.518.619 2.307.522a3.566 3.566 0 0 0 1.999-.954 5.817 5.817 0 0 0 1.282-1.75l-.442-.288zm-8.235-9.507c.062-.127.144-.245.241-.348a1.688 1.688 0 0 1 2.13-.239c.152.095.287.217.397.358.354.452.367 1.017.218 1.547a2.537 2.537 0 0 1-.202.511 2.75 2.75 0 0 1-.307.461 4.008 4.008 0 0 1-1.344 1.052l-1.124-2.112a1.379 1.379 0 0 1-.01-1.23zm1.503 11.258c-.249.09-.507.151-.769.184-.499.06-.984.027-1.394-.113a2.765 2.765 0 0 1-1.047-.64 3.796 3.796 0 0 1-1.032-3.647 2.651 2.651 0 0 1 .897-1.393c.22-.176.467-.316.73-.415l3.324 5.676c-.223.142-.46.258-.71.348zm12.06 4.895v10.461a.649.649 0 0 1-.127.384.638.638 0 0 1-.533.262h-.434v.584h5.094v-.546h-.725a.785.785 0 0 1-.483-.151.777.777 0 0 1-.325-.668l-.003-12.43c-1.183.448-2.425.72-3.686.808v.418l.63.137c.35.071.6.383.593.741zm-48.188 11.54v-4.785a.864.864 0 0 1 .51-.808c.102-.045.214-.07.396-.081.227-.013.455-.012.682.004v-.666l-6.132-.003v.673h.815a.857.857 0 0 1 .866.875l-.003 2.957c-.014.367-.215.7-.531.887a4.283 4.283 0 0 1-1.831.627 4.636 4.636 0 0 1-.924-.002 2.713 2.713 0 0 1-1.794-.915 4.52 4.52 0 0 1-.444-.588 4.914 4.914 0 0 1-.354-.662c-.316-.728-.458-1.525-.54-2.31a10.01 10.01 0 0 1-.046-.91 23.068 23.068 0 0 1 .13-2.61c.043-.37.091-.648.157-.92.126-.527.32-1.056.59-1.573a4.08 4.08 0 0 1 4.19-2.171c.9.147 1.729.582 2.362 1.239a4.233 4.233 0 0 1 1.147 2.408l.574.005-.001-4.062h-.541a.652.652 0 0 1-.125.4c-.219.27-.481.319-.761.224a8.506 8.506 0 0 1-.633-.295 6.057 6.057 0 0 0-2.868-.698 7.522 7.522 0 0 0-5.12 1.702 6.08 6.08 0 0 0-1.794 2.405 8.427 8.427 0 0 0-.663 3.568c.038.937.197 1.852.596 2.778.136.315.294.62.473.913.179.293.378.573.595.828a4.865 4.865 0 0 0 2.437 1.577c2.41.65 4.975.376 7.193-.768l.749.76.643-.002zm14.914-.335a.68.68 0 0 1-.659-.699l.005-4.644a1.127 1.127 0 0 1 .477-.94c.155-.141.325-.264.509-.364.47-.255.986-.359 1.505-.295.2.042.385.138.534.28.303.313.467.735.455 1.172l-.004 4.82a.643.643 0 0 1-.662.67h-.406v.51h5.118l.002-.504-.554.001a.765.765 0 0 1-.787-.758v-5.126a2.338 2.338 0 0 0-.63-1.676 2.164 2.164 0 0 0-.692-.505c-.728-.33-1.613-.26-2.43.007-.18.054-.357.115-.532.182a9.682 9.682 0 0 0-1.888 1l-.001-1.392a10.299 10.299 0 0 1-3.807.845v.526l.493.044a.692.692 0 0 1 .664.708l.005 5.452a.66.66 0 0 1-.685.684l-.48.001-.001.504 5.168.007v-.51h-.717zm19.924-.025a.884.884 0 0 1-.918-.908l-.001-4.456a1.164 1.164 0 0 1 .516-1.008c.22-.146.485-.212.75-.187a1.515 1.515 0 0 0 .777.828c.41.18.904.212 1.379-.082.075-.052.143-.114.204-.182.286-.348.38-.81.3-1.25a1.172 1.172 0 0 0-.756-.894c-.506-.194-1.14-.135-1.702.202-.347.18-.693.47-1.028.72l-.438.34v-1.406c-1.28.368-2.581.658-3.897.868v.419l.53.069a.707.707 0 0 1 .634.717l-.004 5.412a.799.799 0 0 1-.148.484.791.791 0 0 1-.661.34h-.508l.001.504 5.705.004v-.534h-.735z" fill="#000"></path><path d="M31.535 67.024a5.117 5.117 0 0 1-1.081 1.094 3.079 3.079 0 0 1-1.845.58 3.153 3.153 0 0 1-1.462-.388 2.925 2.925 0 0 1-.835-.687 3.49 3.49 0 0 1-.814-2.405l6.185.004a6.015 6.015 0 0 0-.358-1.713 3.504 3.504 0 0 0-.53-.987 3.426 3.426 0 0 0-.818-.766c-.564-.385-1.238-.556-1.883-.624a5.319 5.319 0 0 0-1.75.11c-.29.07-.58.165-.856.288a4.61 4.61 0 0 0-1.467 1.032c-.388.404-.69.883-.89 1.407-.3.8-.346 1.666-.23 2.517.038.285.096.568.23.93.133.36.341.799.624 1.186.284.389.636.724 1.037.99.82.552 1.816.757 2.756.736.675-.02 1.346-.15 2.018-.5.214-.113.419-.244.61-.393a5.591 5.591 0 0 0 1.703-2.14l-.344-.27zm-5.786-4.066c.137-.298.307-.594.58-.845.116-.102.245-.189.383-.257.511-.24 1.039-.24 1.469.026.151.093.285.216.392.36.242.355.404.759.474 1.183.068.373.027.75.036 1.12l-3.56.006c-.006-.535-.01-1.084.226-1.593zm25.138 4.095a5.095 5.095 0 0 1-1.082 1.094 3.076 3.076 0 0 1-1.845.58 3.149 3.149 0 0 1-1.461-.389 2.935 2.935 0 0 1-.835-.686 3.49 3.49 0 0 1-.815-2.405l6.186.003a6.078 6.078 0 0 0-.358-1.712 3.456 3.456 0 0 0-1.348-1.754c-.563-.385-1.238-.555-1.882-.623a5.323 5.323 0 0 0-1.752.11 4.717 4.717 0 0 0-2.322 1.319 4.135 4.135 0 0 0-.89 1.407c-.386 1.07-.383 2.204-.035 3.354a4.236 4.236 0 0 0 1.696 2.27c.818.552 1.816.758 2.755.735.675-.019 1.346-.148 2.018-.5.215-.112.42-.243.612-.392a5.609 5.609 0 0 0 1.703-2.14l-.345-.271zm-5.786-4.066c.137-.298.307-.595.58-.845.116-.102.244-.19.384-.258.51-.239 1.038-.24 1.468.027.151.093.285.216.392.359a2.951 2.951 0 0 1 .473 1.183c.068.373.027.752.036 1.121l-3.56.006c-.005-.535-.01-1.084.227-1.593zm18.892-.35c-.011-.15-.01-.314-.08-.47a.823.823 0 0 0-.134-.21c-.271-.288-.6-.337-.914-.334a1.41 1.41 0 0 0-.9.326c-.334.282-.503.673-.493 1.032.017.366-.103.724-.335 1.006a1.472 1.472 0 0 1-.956.514c-.178.02-.375.029-.561-.05a.817.817 0 0 1-.24-.154c-.292-.303-.37-.656-.338-1.013.03-.442.4-.937.871-1.257.1-.071.204-.136.312-.196.107-.059.217-.112.436-.2.29-.114.585-.217.884-.306 1.182-.328 2.391-.456 3.61-.132.34.084.646.27.877.532.353.395.437.87.445 1.329l-.005 5.503a.741.741 0 0 0 .181.49c.18.208.461.296.728.229l.094.422c-.666.413-1.45.59-2.23.502a1.685 1.685 0 0 1-1.013-.544 1.703 1.703 0 0 1-.31-.496 3.712 3.712 0 0 1-1.454.835 6.311 6.311 0 0 1-2.454.25 1.975 1.975 0 0 1-1.186-.546 2.016 2.016 0 0 1-.574-1.783 2.12 2.12 0 0 1 .185-.586c.09-.185.207-.356.34-.51.135-.154.285-.294.447-.418.162-.124.334-.234.514-.33.18-.094.369-.173.666-.264.364-.11.735-.2 1.11-.269.819-.152 1.654-.202 2.486-.15-.004-.916.003-1.834-.009-2.753zm-1.43 3.468a4.955 4.955 0 0 0-.646.146c-.18.055-.306.11-.423.18-.118.07-.227.154-.324.25-.387.4-.48.762-.478 1.143-.005.346.05.712.482 1.1.442.355.95.377 1.442.254a2.03 2.03 0 0 0 .903-.505c.231-.223.418-.511.452-.78.01-.065.015-.132.015-.198v-1.613a5.086 5.086 0 0 0-1.422.023z" fill="#000"></path></g></svg> 