<?xml version="1.0" encoding="UTF-8"?> <svg xmlns="http://www.w3.org/2000/svg" width="64" height="39"><g fill="#080B19" fill-rule="evenodd"><path d="M27.696.882c0-.6-.397-.852-.896-.852h-3.132c-1.247 0-2.133.621-2.133 2.146v26.873c0 .598.396.852.896.852h3.13c1.25 0 2.135-.623 2.135-2.149V.882M63.3 10.708c.121-.26.25-.507.25-.76 0-.507-.368-.755-.876-.755h-3.807c-.76 0-1.106.269-1.382.888l-5.367 11.914L44.63 10.2c-.462-.73-.951-1.008-2.061-1.008h-4.524c-.941 0-1.443.248-2.004.848l-7.968 8.56 7.148 10.417c.414.6.759.883 1.381.883h4.259c.636 0 1.009-.254 1.009-.79 0-.33-.16-.542-.373-.846l-6.276-9.293 4.763-5.133 9.41 13.913-4.16 8.794c-.114.258-.244.509-.244.757 0 .507.37.754.878.754h3.776c.768 0 1.098-.266 1.383-.884L63.3 10.708M7.76 16.352c-1.25-.279-1.637-.63-1.637-1.267 0-.488.387-.877 1.516-.877h9.135c1.522 0 2.137-.888 2.137-2.134V10.09c0-.5-.248-.897-.844-.897H7.364c-4.767 0-7.27 2.76-7.27 6.28 0 3.128 1.927 5.034 5.772 5.891l6.14 1.374c1.248.28 1.637.632 1.637 1.268 0 .489-.39.877-1.516.877h-9.52c-1.526 0-2.142.885-2.142 2.13v1.988c0 .5.249.9.848.9h10.444c5.639 0 7.914-2.764 7.914-6.034 0-3.38-1.95-5.282-5.771-6.14l-6.14-1.375"></path></g></svg> 