<?xml version="1.0" encoding="UTF-8"?> <svg xmlns="http://www.w3.org/2000/svg" width="94" height="28"><g fill="#080B19" fill-rule="evenodd"><path d="M7.522 22.479H18.82c.133 0 .133.066 0 .132-1.255.594-3.105 2.444-3.105 2.444-1.255 1.255-2.246 2.048-4.426 2.048H.453c-.066 0-.066-.132 0-.132 1.19-.66 2.973-2.51 2.973-2.51.727-.86 2.246-1.982 4.096-1.982m74.263 0h11.364c.066 0 .066.066 0 .132-1.322.594-3.105 2.444-3.105 2.444-1.322 1.255-2.313 2.048-4.427 2.048H74.78c-.066 0-.066-.132 0-.132 1.19-.66 2.973-2.51 2.973-2.51.727-.86 2.18-1.982 4.03-1.982m-55.696 0h11.298c.132 0 .132.066 0 .132-1.255.594-3.106 2.444-3.106 2.444-1.255 1.255-2.246 2.048-4.426 2.048h-10.77c-.131 0-.131-.132-.065-.132 1.189-.66 2.973-2.51 2.973-2.51.726-.86 2.246-1.982 4.096-1.982m18.565 0h11.299c.132 0 .132.066 0 .132-1.256.594-3.106 2.444-3.106 2.444-1.255 1.255-2.246 2.048-4.36 2.048H37.65c-.066 0-.066-.132-.066-.132 1.255-.66 2.973-2.51 2.973-2.51.727-.86 2.246-1.982 4.096-1.982m18.566 0h11.364c.066 0 .066.066-.066.132-1.255.594-3.106 2.444-3.106 2.444-1.255 1.255-2.246 2.048-4.36 2.048H56.216c-.066 0-.066-.132 0-.132 1.19-.66 2.973-2.51 2.973-2.51.66-.86 2.18-1.982 4.03-1.982M66.324.41c-7.135 0-11.892 3.7-11.892 9.316 0 5.154 4.36 8.589 10.835 8.589 2.114 0 3.964-.264 6.144-.859v-4.294c-1.52 1.718-3.369 2.378-5.35 2.378-3.833 0-6.476-2.51-6.476-6.21 0-3.634 2.709-6.277 6.541-6.277 2.048 0 3.7.793 5.021 2.18V.874A26.587 26.587 0 0 0 66.324.41m-53.252 3.04c2.643 0 5.815.528 7.136 1.651V1.006H1.444v4.096C2.765 3.98 5.606 3.516 8.645 3.516v11.232c0 1.652-.132 2.114-.792 2.973h6.012c-.66-.859-.793-1.32-.793-2.973V3.45m19.16 4.03c-1.057.397-3.039.463-4.03.463h-1.586V3.516h2.115c1.916 0 5.153.397 6.408 1.52v-4.03H21.463c.66.792.793 1.321.793 2.907v10.835c0 1.652-.132 2.114-.727 2.973h14.536v-4.096c-1.983 1.52-5.815 1.52-7.334 1.52h-2.115v-4.691h1.52c1.057 0 2.973.132 4.096.528V7.481m20.284-5.947C50.336.807 47.495.411 45.314.411c-3.964 0-7.796 1.255-7.796 5.484 0 7.268 11.893 3.435 11.893 7.928 0 1.454-2.115 2.049-3.832 2.049-3.04 0-5.154-.53-7.797-2.247v3.7c1.982.66 4.691 1.057 7.598 1.057 4.097 0 7.928-1.19 7.928-5.483 0-7.665-11.826-4.23-11.826-7.929 0-1.52 1.916-2.048 3.568-2.048 2.775 0 5.814.858 7.466 2.51V1.535M83.04.675c-6.409 0-10.967 3.7-10.967 8.92 0 5.153 4.096 8.523 10.108 8.523 6.475 0 10.968-3.568 10.968-8.854 0-5.153-4.097-8.589-10.11-8.589zm-.462 14.932c-3.436 0-5.617-2.775-5.617-6.21 0-3.436 2.18-6.211 5.617-6.211 3.369 0 5.615 2.775 5.615 6.21 0 3.436-2.246 6.211-5.615 6.211z"></path></g></svg> 